<mxfile host="app.diagrams.net" modified="2022-02-21T06:01:17.637Z" agent="5.0 (Windows NT 10.0; Win64; x64) AppleWebKit/537.36 (KHTML, like Gecko) Chrome/98.0.4758.102 Safari/537.36" etag="U25LoxjhKaTf45bunIgg" version="16.6.1" type="github" pages="5">
  <diagram id="m-UGv57kSACHkxUJC_R0" name="SDLC Diagram">
    <mxGraphModel dx="1278" dy="539" grid="1" gridSize="10" guides="1" tooltips="1" connect="1" arrows="1" fold="1" page="1" pageScale="1" pageWidth="850" pageHeight="1100" math="0" shadow="0">
      <root>
        <mxCell id="0" />
        <mxCell id="1" parent="0" />
        <mxCell id="9VT-zQopOtRF9PmwW7Mm-1" value="" style="edgeStyle=orthogonalEdgeStyle;rounded=0;orthogonalLoop=1;jettySize=auto;html=1;fillColor=#dae8fc;strokeColor=#6c8ebf;fontStyle=1" parent="1" source="9VT-zQopOtRF9PmwW7Mm-3" target="9VT-zQopOtRF9PmwW7Mm-7" edge="1">
          <mxGeometry relative="1" as="geometry" />
        </mxCell>
        <mxCell id="9VT-zQopOtRF9PmwW7Mm-2" value="" style="edgeStyle=orthogonalEdgeStyle;rounded=0;orthogonalLoop=1;jettySize=auto;html=1;" parent="1" source="9VT-zQopOtRF9PmwW7Mm-3" target="9VT-zQopOtRF9PmwW7Mm-12" edge="1">
          <mxGeometry relative="1" as="geometry" />
        </mxCell>
        <mxCell id="9VT-zQopOtRF9PmwW7Mm-3" value="Problem definition" style="rounded=0;whiteSpace=wrap;html=1;fillColor=#dae8fc;strokeColor=#6c8ebf;fontStyle=1" parent="1" vertex="1">
          <mxGeometry x="84" y="200" width="120" height="60" as="geometry" />
        </mxCell>
        <mxCell id="9VT-zQopOtRF9PmwW7Mm-4" value="" style="edgeStyle=orthogonalEdgeStyle;rounded=0;orthogonalLoop=1;jettySize=auto;html=1;fontStyle=1" parent="1" source="9VT-zQopOtRF9PmwW7Mm-7" target="9VT-zQopOtRF9PmwW7Mm-10" edge="1">
          <mxGeometry relative="1" as="geometry" />
        </mxCell>
        <mxCell id="9VT-zQopOtRF9PmwW7Mm-5" value="" style="edgeStyle=orthogonalEdgeStyle;rounded=0;orthogonalLoop=1;jettySize=auto;html=1;" parent="1" source="9VT-zQopOtRF9PmwW7Mm-7" target="9VT-zQopOtRF9PmwW7Mm-14" edge="1">
          <mxGeometry relative="1" as="geometry" />
        </mxCell>
        <mxCell id="9VT-zQopOtRF9PmwW7Mm-6" value="" style="edgeStyle=orthogonalEdgeStyle;rounded=0;orthogonalLoop=1;jettySize=auto;html=1;fillColor=#dae8fc;strokeColor=#6c8ebf;fontStyle=1" parent="1" source="9VT-zQopOtRF9PmwW7Mm-7" target="9VT-zQopOtRF9PmwW7Mm-10" edge="1">
          <mxGeometry relative="1" as="geometry" />
        </mxCell>
        <mxCell id="9VT-zQopOtRF9PmwW7Mm-7" value="Requirement analysis" style="rounded=0;whiteSpace=wrap;html=1;fillColor=#dae8fc;strokeColor=#6c8ebf;fontStyle=1" parent="1" vertex="1">
          <mxGeometry x="244" y="200" width="120" height="60" as="geometry" />
        </mxCell>
        <mxCell id="9VT-zQopOtRF9PmwW7Mm-8" value="" style="edgeStyle=orthogonalEdgeStyle;rounded=0;orthogonalLoop=1;jettySize=auto;html=1;" parent="1" source="9VT-zQopOtRF9PmwW7Mm-10" target="9VT-zQopOtRF9PmwW7Mm-19" edge="1">
          <mxGeometry relative="1" as="geometry" />
        </mxCell>
        <mxCell id="9VT-zQopOtRF9PmwW7Mm-9" value="" style="edgeStyle=orthogonalEdgeStyle;rounded=0;orthogonalLoop=1;jettySize=auto;html=1;fillColor=#dae8fc;strokeColor=#6c8ebf;fontStyle=1" parent="1" source="9VT-zQopOtRF9PmwW7Mm-10" target="9VT-zQopOtRF9PmwW7Mm-25" edge="1">
          <mxGeometry relative="1" as="geometry" />
        </mxCell>
        <mxCell id="9VT-zQopOtRF9PmwW7Mm-10" value="Design" style="rounded=0;whiteSpace=wrap;html=1;fillColor=#dae8fc;strokeColor=#6c8ebf;fontStyle=1" parent="1" vertex="1">
          <mxGeometry x="404" y="200" width="120" height="60" as="geometry" />
        </mxCell>
        <mxCell id="9VT-zQopOtRF9PmwW7Mm-11" value="" style="edgeStyle=orthogonalEdgeStyle;rounded=0;orthogonalLoop=1;jettySize=auto;html=1;fontSize=36;" parent="1" source="9VT-zQopOtRF9PmwW7Mm-12" target="9VT-zQopOtRF9PmwW7Mm-54" edge="1">
          <mxGeometry relative="1" as="geometry" />
        </mxCell>
        <mxCell id="9VT-zQopOtRF9PmwW7Mm-12" value="Technical (Do we have the necessary resources and infrastructure to support the software if it is&lt;br/&gt;acquired?)&lt;br/&gt;" style="shape=document;whiteSpace=wrap;html=1;boundedLbl=1;" parent="1" vertex="1">
          <mxGeometry x="70" y="301" width="150" height="125" as="geometry" />
        </mxCell>
        <mxCell id="9VT-zQopOtRF9PmwW7Mm-13" value="" style="edgeStyle=orthogonalEdgeStyle;rounded=0;orthogonalLoop=1;jettySize=auto;html=1;" parent="1" source="9VT-zQopOtRF9PmwW7Mm-14" target="9VT-zQopOtRF9PmwW7Mm-16" edge="1">
          <mxGeometry relative="1" as="geometry" />
        </mxCell>
        <mxCell id="9VT-zQopOtRF9PmwW7Mm-14" value="MEDITECH Compatible" style="shape=document;whiteSpace=wrap;html=1;boundedLbl=1;rounded=0;" parent="1" vertex="1">
          <mxGeometry x="239" y="301" width="130" height="65" as="geometry" />
        </mxCell>
        <mxCell id="9VT-zQopOtRF9PmwW7Mm-15" value="" style="edgeStyle=orthogonalEdgeStyle;rounded=0;orthogonalLoop=1;jettySize=auto;html=1;" parent="1" source="9VT-zQopOtRF9PmwW7Mm-16" target="9VT-zQopOtRF9PmwW7Mm-17" edge="1">
          <mxGeometry relative="1" as="geometry" />
        </mxCell>
        <mxCell id="9VT-zQopOtRF9PmwW7Mm-16" value="Point of Care Documentation" style="shape=document;whiteSpace=wrap;html=1;boundedLbl=1;rounded=0;" parent="1" vertex="1">
          <mxGeometry x="239" y="396" width="130" height="60" as="geometry" />
        </mxCell>
        <mxCell id="9VT-zQopOtRF9PmwW7Mm-17" value="Budget" style="shape=document;whiteSpace=wrap;html=1;boundedLbl=1;rounded=0;" parent="1" vertex="1">
          <mxGeometry x="239" y="486" width="130" height="50" as="geometry" />
        </mxCell>
        <mxCell id="9VT-zQopOtRF9PmwW7Mm-18" value="" style="edgeStyle=orthogonalEdgeStyle;rounded=0;orthogonalLoop=1;jettySize=auto;html=1;" parent="1" source="9VT-zQopOtRF9PmwW7Mm-19" target="9VT-zQopOtRF9PmwW7Mm-21" edge="1">
          <mxGeometry relative="1" as="geometry" />
        </mxCell>
        <mxCell id="9VT-zQopOtRF9PmwW7Mm-19" value="Designing the prototypes of the softwares of the new machines" style="shape=document;whiteSpace=wrap;html=1;boundedLbl=1;rounded=0;" parent="1" vertex="1">
          <mxGeometry x="404" y="301" width="120" height="85" as="geometry" />
        </mxCell>
        <mxCell id="9VT-zQopOtRF9PmwW7Mm-21" value="Designing machines where new technologies like AI can be incorporated" style="shape=document;whiteSpace=wrap;html=1;boundedLbl=1;rounded=0;" parent="1" vertex="1">
          <mxGeometry x="404" y="416" width="120" height="80" as="geometry" />
        </mxCell>
        <mxCell id="9VT-zQopOtRF9PmwW7Mm-23" value="" style="edgeStyle=orthogonalEdgeStyle;rounded=0;orthogonalLoop=1;jettySize=auto;html=1;" parent="1" source="9VT-zQopOtRF9PmwW7Mm-25" target="9VT-zQopOtRF9PmwW7Mm-27" edge="1">
          <mxGeometry relative="1" as="geometry" />
        </mxCell>
        <mxCell id="9VT-zQopOtRF9PmwW7Mm-24" value="" style="edgeStyle=orthogonalEdgeStyle;rounded=0;orthogonalLoop=1;jettySize=auto;html=1;fillColor=#dae8fc;strokeColor=#6c8ebf;fontStyle=1" parent="1" source="9VT-zQopOtRF9PmwW7Mm-25" target="9VT-zQopOtRF9PmwW7Mm-33" edge="1">
          <mxGeometry relative="1" as="geometry" />
        </mxCell>
        <mxCell id="9VT-zQopOtRF9PmwW7Mm-25" value="Coding" style="rounded=0;whiteSpace=wrap;html=1;fillColor=#dae8fc;strokeColor=#6c8ebf;fontStyle=1" parent="1" vertex="1">
          <mxGeometry x="568.5" y="200" width="120" height="60" as="geometry" />
        </mxCell>
        <mxCell id="9VT-zQopOtRF9PmwW7Mm-26" value="" style="edgeStyle=orthogonalEdgeStyle;rounded=0;orthogonalLoop=1;jettySize=auto;html=1;" parent="1" source="9VT-zQopOtRF9PmwW7Mm-27" target="9VT-zQopOtRF9PmwW7Mm-29" edge="1">
          <mxGeometry relative="1" as="geometry" />
        </mxCell>
        <mxCell id="9VT-zQopOtRF9PmwW7Mm-27" value="Writing the algorithms for the application" style="shape=document;whiteSpace=wrap;html=1;boundedLbl=1;rounded=0;" parent="1" vertex="1">
          <mxGeometry x="569" y="301" width="120" height="80" as="geometry" />
        </mxCell>
        <mxCell id="9VT-zQopOtRF9PmwW7Mm-28" value="" style="edgeStyle=orthogonalEdgeStyle;rounded=0;orthogonalLoop=1;jettySize=auto;html=1;" parent="1" source="9VT-zQopOtRF9PmwW7Mm-29" target="9VT-zQopOtRF9PmwW7Mm-30" edge="1">
          <mxGeometry relative="1" as="geometry" />
        </mxCell>
        <mxCell id="9VT-zQopOtRF9PmwW7Mm-29" value="Writing the front end code for the application" style="shape=document;whiteSpace=wrap;html=1;boundedLbl=1;rounded=0;" parent="1" vertex="1">
          <mxGeometry x="569" y="406" width="120" height="80" as="geometry" />
        </mxCell>
        <mxCell id="9VT-zQopOtRF9PmwW7Mm-30" value="Implementing the back end code with the algorithm for the application" style="shape=document;whiteSpace=wrap;html=1;boundedLbl=1;rounded=0;" parent="1" vertex="1">
          <mxGeometry x="568.5" y="516" width="120" height="80" as="geometry" />
        </mxCell>
        <mxCell id="9VT-zQopOtRF9PmwW7Mm-31" value="" style="edgeStyle=orthogonalEdgeStyle;rounded=0;orthogonalLoop=1;jettySize=auto;html=1;" parent="1" source="9VT-zQopOtRF9PmwW7Mm-33" target="9VT-zQopOtRF9PmwW7Mm-34" edge="1">
          <mxGeometry relative="1" as="geometry" />
        </mxCell>
        <mxCell id="9VT-zQopOtRF9PmwW7Mm-32" value="" style="edgeStyle=orthogonalEdgeStyle;rounded=0;orthogonalLoop=1;jettySize=auto;html=1;fillColor=#dae8fc;strokeColor=#6c8ebf;fontStyle=1" parent="1" source="9VT-zQopOtRF9PmwW7Mm-33" target="9VT-zQopOtRF9PmwW7Mm-37" edge="1">
          <mxGeometry relative="1" as="geometry" />
        </mxCell>
        <mxCell id="9VT-zQopOtRF9PmwW7Mm-33" value="Testing" style="rounded=0;whiteSpace=wrap;html=1;fillColor=#dae8fc;strokeColor=#6c8ebf;fontStyle=1" parent="1" vertex="1">
          <mxGeometry x="724" y="200" width="120" height="60" as="geometry" />
        </mxCell>
        <mxCell id="9VT-zQopOtRF9PmwW7Mm-34" value="Testing and debugging the code written" style="shape=document;whiteSpace=wrap;html=1;boundedLbl=1;rounded=0;" parent="1" vertex="1">
          <mxGeometry x="724" y="301" width="120" height="80" as="geometry" />
        </mxCell>
        <mxCell id="9VT-zQopOtRF9PmwW7Mm-35" value="" style="edgeStyle=orthogonalEdgeStyle;rounded=0;orthogonalLoop=1;jettySize=auto;html=1;" parent="1" source="9VT-zQopOtRF9PmwW7Mm-37" target="9VT-zQopOtRF9PmwW7Mm-39" edge="1">
          <mxGeometry relative="1" as="geometry" />
        </mxCell>
        <mxCell id="9VT-zQopOtRF9PmwW7Mm-36" value="" style="edgeStyle=orthogonalEdgeStyle;rounded=0;orthogonalLoop=1;jettySize=auto;html=1;fillColor=#dae8fc;strokeColor=#6c8ebf;fontStyle=1" parent="1" source="9VT-zQopOtRF9PmwW7Mm-37" target="9VT-zQopOtRF9PmwW7Mm-42" edge="1">
          <mxGeometry relative="1" as="geometry" />
        </mxCell>
        <mxCell id="9VT-zQopOtRF9PmwW7Mm-37" value="Deployment" style="whiteSpace=wrap;html=1;rounded=0;fillColor=#dae8fc;strokeColor=#6c8ebf;fontStyle=1" parent="1" vertex="1">
          <mxGeometry x="884" y="200" width="120" height="60" as="geometry" />
        </mxCell>
        <mxCell id="9VT-zQopOtRF9PmwW7Mm-39" value="Configuring the software into the hardware machines" style="shape=document;whiteSpace=wrap;html=1;boundedLbl=1;rounded=0;" parent="1" vertex="1">
          <mxGeometry x="884" y="301" width="120" height="80" as="geometry" />
        </mxCell>
        <mxCell id="9VT-zQopOtRF9PmwW7Mm-41" value="" style="edgeStyle=orthogonalEdgeStyle;rounded=0;orthogonalLoop=1;jettySize=auto;html=1;" parent="1" source="9VT-zQopOtRF9PmwW7Mm-42" target="9VT-zQopOtRF9PmwW7Mm-43" edge="1">
          <mxGeometry relative="1" as="geometry" />
        </mxCell>
        <mxCell id="9VT-zQopOtRF9PmwW7Mm-42" value="Scaling" style="whiteSpace=wrap;html=1;rounded=0;fillColor=#dae8fc;strokeColor=#6c8ebf;fontStyle=1" parent="1" vertex="1">
          <mxGeometry x="1044" y="200" width="120" height="60" as="geometry" />
        </mxCell>
        <mxCell id="9VT-zQopOtRF9PmwW7Mm-43" value="Implementing the program to existing old machines&amp;nbsp;" style="shape=document;whiteSpace=wrap;html=1;boundedLbl=1;rounded=0;" parent="1" vertex="1">
          <mxGeometry x="1040" y="301" width="130" height="80" as="geometry" />
        </mxCell>
        <mxCell id="9VT-zQopOtRF9PmwW7Mm-44" value="Phase 1&lt;br&gt;Formation" style="text;html=1;strokeColor=none;fillColor=none;align=center;verticalAlign=middle;whiteSpace=wrap;rounded=0;fontStyle=1" parent="1" vertex="1">
          <mxGeometry x="108" y="130" width="60" height="30" as="geometry" />
        </mxCell>
        <mxCell id="9VT-zQopOtRF9PmwW7Mm-45" value="Phase 2&lt;br&gt;Requirement/ Planning" style="text;html=1;strokeColor=none;fillColor=none;align=center;verticalAlign=middle;whiteSpace=wrap;rounded=0;fontStyle=1" parent="1" vertex="1">
          <mxGeometry x="268" y="130" width="60" height="30" as="geometry" />
        </mxCell>
        <mxCell id="9VT-zQopOtRF9PmwW7Mm-46" value="Phase 3&lt;br&gt;Design" style="text;html=1;strokeColor=none;fillColor=none;align=center;verticalAlign=middle;whiteSpace=wrap;rounded=0;fontStyle=1" parent="1" vertex="1">
          <mxGeometry x="428" y="130" width="60" height="30" as="geometry" />
        </mxCell>
        <mxCell id="9VT-zQopOtRF9PmwW7Mm-47" value="Phase 4&lt;br&gt;Construct" style="text;html=1;strokeColor=none;fillColor=none;align=center;verticalAlign=middle;whiteSpace=wrap;rounded=0;fontStyle=1" parent="1" vertex="1">
          <mxGeometry x="593" y="130" width="60" height="30" as="geometry" />
        </mxCell>
        <mxCell id="9VT-zQopOtRF9PmwW7Mm-48" value="Phase 5&lt;br&gt;Test" style="text;html=1;strokeColor=none;fillColor=none;align=center;verticalAlign=middle;whiteSpace=wrap;rounded=0;fontStyle=1" parent="1" vertex="1">
          <mxGeometry x="748" y="130" width="60" height="30" as="geometry" />
        </mxCell>
        <mxCell id="9VT-zQopOtRF9PmwW7Mm-49" value="Phase 6&lt;br&gt;Product release" style="text;html=1;strokeColor=none;fillColor=none;align=center;verticalAlign=middle;whiteSpace=wrap;rounded=0;fontStyle=1" parent="1" vertex="1">
          <mxGeometry x="908" y="130" width="60" height="30" as="geometry" />
        </mxCell>
        <mxCell id="9VT-zQopOtRF9PmwW7Mm-50" value="Phase 7&lt;br&gt;Post Implementation" style="text;html=1;strokeColor=none;fillColor=none;align=center;verticalAlign=middle;whiteSpace=wrap;rounded=0;fontStyle=1" parent="1" vertex="1">
          <mxGeometry x="1068" y="130" width="60" height="30" as="geometry" />
        </mxCell>
        <mxCell id="9VT-zQopOtRF9PmwW7Mm-51" value="" style="endArrow=none;html=1;rounded=0;" parent="1" edge="1">
          <mxGeometry width="50" height="50" relative="1" as="geometry">
            <mxPoint x="98" y="110" as="sourcePoint" />
            <mxPoint x="1148" y="110" as="targetPoint" />
          </mxGeometry>
        </mxCell>
        <mxCell id="9VT-zQopOtRF9PmwW7Mm-52" value="" style="endArrow=none;html=1;rounded=0;" parent="1" edge="1">
          <mxGeometry width="50" height="50" relative="1" as="geometry">
            <mxPoint x="101" y="180" as="sourcePoint" />
            <mxPoint x="1150" y="180" as="targetPoint" />
          </mxGeometry>
        </mxCell>
        <mxCell id="9VT-zQopOtRF9PmwW7Mm-53" value="&lt;b&gt;&lt;font style=&quot;font-size: 36px&quot;&gt;SDLC Diagram for Healthcare in 21st Century&lt;/font&gt;&lt;/b&gt;" style="text;html=1;align=center;verticalAlign=middle;resizable=0;points=[];autosize=1;strokeColor=none;fillColor=none;" parent="1" vertex="1">
          <mxGeometry x="234" y="40" width="790" height="30" as="geometry" />
        </mxCell>
        <mxCell id="9VT-zQopOtRF9PmwW7Mm-56" value="" style="edgeStyle=orthogonalEdgeStyle;rounded=0;orthogonalLoop=1;jettySize=auto;html=1;" parent="1" source="9VT-zQopOtRF9PmwW7Mm-54" target="9VT-zQopOtRF9PmwW7Mm-55" edge="1">
          <mxGeometry relative="1" as="geometry" />
        </mxCell>
        <mxCell id="9VT-zQopOtRF9PmwW7Mm-54" value="Economic (Do we have the financial resources to pay for it, including support and&lt;br/&gt;maintenance?)&lt;br/&gt;" style="shape=document;whiteSpace=wrap;html=1;boundedLbl=1;" parent="1" vertex="1">
          <mxGeometry x="70" y="466" width="149" height="100" as="geometry" />
        </mxCell>
        <mxCell id="9VT-zQopOtRF9PmwW7Mm-55" value="Operational (Do we have properly trained individuals who can operate and use the software?)." style="shape=document;whiteSpace=wrap;html=1;boundedLbl=1;" parent="1" vertex="1">
          <mxGeometry x="71" y="606" width="149" height="100" as="geometry" />
        </mxCell>
      </root>
    </mxGraphModel>
  </diagram>
  <diagram id="Zsf49M7KbRcXS9IpoPur" name="Waterfall model">
    <mxGraphModel dx="1753" dy="634" grid="1" gridSize="10" guides="1" tooltips="1" connect="1" arrows="1" fold="1" page="1" pageScale="1" pageWidth="850" pageHeight="1100" math="0" shadow="0">
      <root>
        <mxCell id="2ympeW1HPlJ-J8ujCVrC-0" />
        <mxCell id="2ympeW1HPlJ-J8ujCVrC-1" parent="2ympeW1HPlJ-J8ujCVrC-0" />
        <mxCell id="2ympeW1HPlJ-J8ujCVrC-2" value="&lt;b&gt;&lt;font style=&quot;font-size: 36px&quot;&gt;Waterfall model for Healthcare system&lt;/font&gt;&lt;/b&gt;" style="text;html=1;align=center;verticalAlign=middle;resizable=0;points=[];autosize=1;strokeColor=none;fillColor=none;" vertex="1" parent="2ympeW1HPlJ-J8ujCVrC-1">
          <mxGeometry x="140" y="50" width="670" height="30" as="geometry" />
        </mxCell>
        <mxCell id="2ympeW1HPlJ-J8ujCVrC-6" value="" style="edgeStyle=orthogonalEdgeStyle;rounded=0;orthogonalLoop=1;jettySize=auto;html=1;fontSize=12;" edge="1" parent="2ympeW1HPlJ-J8ujCVrC-1" source="2ympeW1HPlJ-J8ujCVrC-4" target="2ympeW1HPlJ-J8ujCVrC-5">
          <mxGeometry relative="1" as="geometry" />
        </mxCell>
        <mxCell id="2ympeW1HPlJ-J8ujCVrC-4" value="Checking if we have the resources which are economically, technically and operationally viable for the healthcare project" style="rounded=1;whiteSpace=wrap;html=1;fontSize=12;fillColor=#8FFFFF;" vertex="1" parent="2ympeW1HPlJ-J8ujCVrC-1">
          <mxGeometry x="24" y="119" width="140" height="80" as="geometry" />
        </mxCell>
        <mxCell id="2ympeW1HPlJ-J8ujCVrC-8" value="" style="edgeStyle=orthogonalEdgeStyle;rounded=0;orthogonalLoop=1;jettySize=auto;html=1;fontSize=12;" edge="1" parent="2ympeW1HPlJ-J8ujCVrC-1" source="2ympeW1HPlJ-J8ujCVrC-5" target="2ympeW1HPlJ-J8ujCVrC-7">
          <mxGeometry relative="1" as="geometry" />
        </mxCell>
        <mxCell id="2ympeW1HPlJ-J8ujCVrC-5" value="Obtaining MEDITECH compatible resources, making point of care documentation and fixing budget" style="rounded=1;whiteSpace=wrap;html=1;fillColor=#8FFFFF;" vertex="1" parent="2ympeW1HPlJ-J8ujCVrC-1">
          <mxGeometry x="174" y="219" width="150" height="90" as="geometry" />
        </mxCell>
        <mxCell id="2ympeW1HPlJ-J8ujCVrC-14" style="edgeStyle=orthogonalEdgeStyle;rounded=0;orthogonalLoop=1;jettySize=auto;html=1;exitX=1;exitY=0.5;exitDx=0;exitDy=0;entryX=0.5;entryY=0;entryDx=0;entryDy=0;fontSize=12;" edge="1" parent="2ympeW1HPlJ-J8ujCVrC-1" source="2ympeW1HPlJ-J8ujCVrC-7" target="2ympeW1HPlJ-J8ujCVrC-10">
          <mxGeometry relative="1" as="geometry" />
        </mxCell>
        <mxCell id="2ympeW1HPlJ-J8ujCVrC-7" value="Designing the prototypes and machined to be incorporated&amp;nbsp;" style="rounded=1;whiteSpace=wrap;html=1;fillColor=#8FFFFF;" vertex="1" parent="2ympeW1HPlJ-J8ujCVrC-1">
          <mxGeometry x="344" y="329" width="120" height="60" as="geometry" />
        </mxCell>
        <mxCell id="2ympeW1HPlJ-J8ujCVrC-9" value="" style="edgeStyle=orthogonalEdgeStyle;rounded=0;orthogonalLoop=1;jettySize=auto;html=1;fontSize=12;" edge="1" parent="2ympeW1HPlJ-J8ujCVrC-1" source="2ympeW1HPlJ-J8ujCVrC-10" target="2ympeW1HPlJ-J8ujCVrC-12">
          <mxGeometry relative="1" as="geometry" />
        </mxCell>
        <mxCell id="2ympeW1HPlJ-J8ujCVrC-10" value="Writing the font end, back end and the algorithms and installing it into the newly designed machines" style="rounded=1;whiteSpace=wrap;html=1;fontSize=12;fillColor=#8FFFFF;" vertex="1" parent="2ympeW1HPlJ-J8ujCVrC-1">
          <mxGeometry x="474" y="419" width="150" height="70" as="geometry" />
        </mxCell>
        <mxCell id="2ympeW1HPlJ-J8ujCVrC-11" value="" style="edgeStyle=orthogonalEdgeStyle;rounded=0;orthogonalLoop=1;jettySize=auto;html=1;fontSize=12;" edge="1" parent="2ympeW1HPlJ-J8ujCVrC-1" source="2ympeW1HPlJ-J8ujCVrC-12" target="2ympeW1HPlJ-J8ujCVrC-13">
          <mxGeometry relative="1" as="geometry" />
        </mxCell>
        <mxCell id="2ympeW1HPlJ-J8ujCVrC-12" value="Testing and debugging the softwares installed" style="rounded=1;whiteSpace=wrap;html=1;fillColor=#8FFFFF;" vertex="1" parent="2ympeW1HPlJ-J8ujCVrC-1">
          <mxGeometry x="644" y="519" width="120" height="60" as="geometry" />
        </mxCell>
        <mxCell id="2ympeW1HPlJ-J8ujCVrC-13" value="Implementing the program to existing old machines and adding new features" style="rounded=1;whiteSpace=wrap;html=1;fillColor=#8FFFFF;" vertex="1" parent="2ympeW1HPlJ-J8ujCVrC-1">
          <mxGeometry x="784" y="609" width="120" height="60" as="geometry" />
        </mxCell>
      </root>
    </mxGraphModel>
  </diagram>
  <diagram id="iU_2A5npWSxxXnWVXEzf" name="Iterative waterfall model">
    <mxGraphModel dx="1753" dy="634" grid="1" gridSize="10" guides="1" tooltips="1" connect="1" arrows="1" fold="1" page="1" pageScale="1" pageWidth="850" pageHeight="1100" math="0" shadow="0">
      <root>
        <mxCell id="xPJC3eJ1T_MHryYM_bCt-0" />
        <mxCell id="xPJC3eJ1T_MHryYM_bCt-1" parent="xPJC3eJ1T_MHryYM_bCt-0" />
        <mxCell id="xPJC3eJ1T_MHryYM_bCt-2" value="&lt;b&gt;&lt;font style=&quot;font-size: 36px&quot;&gt;Iterative Waterfall model for Healthcare system&lt;/font&gt;&lt;/b&gt;" style="text;html=1;align=center;verticalAlign=middle;resizable=0;points=[];autosize=1;strokeColor=none;fillColor=none;" vertex="1" parent="xPJC3eJ1T_MHryYM_bCt-1">
          <mxGeometry x="25" y="50" width="820" height="30" as="geometry" />
        </mxCell>
        <mxCell id="xPJC3eJ1T_MHryYM_bCt-3" value="" style="edgeStyle=orthogonalEdgeStyle;rounded=0;orthogonalLoop=1;jettySize=auto;html=1;fontSize=12;" edge="1" parent="xPJC3eJ1T_MHryYM_bCt-1" source="xPJC3eJ1T_MHryYM_bCt-4" target="xPJC3eJ1T_MHryYM_bCt-6">
          <mxGeometry relative="1" as="geometry" />
        </mxCell>
        <mxCell id="0nfRWeNEdjI4xpZbCPpN-5" style="edgeStyle=none;rounded=0;orthogonalLoop=1;jettySize=auto;html=1;exitX=0.5;exitY=1;exitDx=0;exitDy=0;fontSize=36;" edge="1" parent="xPJC3eJ1T_MHryYM_bCt-1" source="xPJC3eJ1T_MHryYM_bCt-4">
          <mxGeometry relative="1" as="geometry">
            <mxPoint x="89.23529411764707" y="599.9999999999998" as="targetPoint" />
          </mxGeometry>
        </mxCell>
        <mxCell id="0nfRWeNEdjI4xpZbCPpN-10" style="edgeStyle=none;rounded=0;orthogonalLoop=1;jettySize=auto;html=1;exitX=0.5;exitY=1;exitDx=0;exitDy=0;entryX=0;entryY=0.75;entryDx=0;entryDy=0;fontSize=36;" edge="1" parent="xPJC3eJ1T_MHryYM_bCt-1" source="xPJC3eJ1T_MHryYM_bCt-4" target="xPJC3eJ1T_MHryYM_bCt-13">
          <mxGeometry relative="1" as="geometry">
            <Array as="points">
              <mxPoint x="89" y="595" />
            </Array>
          </mxGeometry>
        </mxCell>
        <mxCell id="xPJC3eJ1T_MHryYM_bCt-4" value="Checking if we have the resources which are economically, technically and operationally viable for the healthcare project" style="rounded=1;whiteSpace=wrap;html=1;fontSize=12;fillColor=#66FFFF;" vertex="1" parent="xPJC3eJ1T_MHryYM_bCt-1">
          <mxGeometry x="14" y="120" width="150" height="90" as="geometry" />
        </mxCell>
        <mxCell id="xPJC3eJ1T_MHryYM_bCt-5" value="" style="edgeStyle=orthogonalEdgeStyle;rounded=0;orthogonalLoop=1;jettySize=auto;html=1;fontSize=12;" edge="1" parent="xPJC3eJ1T_MHryYM_bCt-1" source="xPJC3eJ1T_MHryYM_bCt-6" target="xPJC3eJ1T_MHryYM_bCt-8">
          <mxGeometry relative="1" as="geometry" />
        </mxCell>
        <mxCell id="0nfRWeNEdjI4xpZbCPpN-3" style="edgeStyle=none;rounded=0;orthogonalLoop=1;jettySize=auto;html=1;exitX=0.5;exitY=1;exitDx=0;exitDy=0;fontSize=36;" edge="1" parent="xPJC3eJ1T_MHryYM_bCt-1" source="xPJC3eJ1T_MHryYM_bCt-6">
          <mxGeometry relative="1" as="geometry">
            <mxPoint x="244.52941176470586" y="599.9999999999998" as="targetPoint" />
          </mxGeometry>
        </mxCell>
        <mxCell id="xPJC3eJ1T_MHryYM_bCt-6" value="Obtaining MEDITECH compatible resources, making point of care documentation and fixing budget" style="rounded=1;whiteSpace=wrap;html=1;fillColor=#66FFFF;" vertex="1" parent="xPJC3eJ1T_MHryYM_bCt-1">
          <mxGeometry x="174" y="220" width="140" height="80" as="geometry" />
        </mxCell>
        <mxCell id="xPJC3eJ1T_MHryYM_bCt-7" style="edgeStyle=orthogonalEdgeStyle;rounded=0;orthogonalLoop=1;jettySize=auto;html=1;exitX=1;exitY=0.5;exitDx=0;exitDy=0;entryX=0.5;entryY=0;entryDx=0;entryDy=0;fontSize=12;" edge="1" parent="xPJC3eJ1T_MHryYM_bCt-1" source="xPJC3eJ1T_MHryYM_bCt-8" target="xPJC3eJ1T_MHryYM_bCt-10">
          <mxGeometry relative="1" as="geometry" />
        </mxCell>
        <mxCell id="0nfRWeNEdjI4xpZbCPpN-1" style="edgeStyle=none;rounded=0;orthogonalLoop=1;jettySize=auto;html=1;exitX=0.5;exitY=1;exitDx=0;exitDy=0;fontSize=36;" edge="1" parent="xPJC3eJ1T_MHryYM_bCt-1" source="xPJC3eJ1T_MHryYM_bCt-8">
          <mxGeometry relative="1" as="geometry">
            <mxPoint x="393.9411764705883" y="599.9999999999998" as="targetPoint" />
          </mxGeometry>
        </mxCell>
        <mxCell id="xPJC3eJ1T_MHryYM_bCt-8" value="Designing the prototypes and machined to be incorporated&amp;nbsp;" style="rounded=1;whiteSpace=wrap;html=1;fillColor=#66FFFF;" vertex="1" parent="xPJC3eJ1T_MHryYM_bCt-1">
          <mxGeometry x="334" y="310" width="120" height="60" as="geometry" />
        </mxCell>
        <mxCell id="xPJC3eJ1T_MHryYM_bCt-9" value="" style="edgeStyle=orthogonalEdgeStyle;rounded=0;orthogonalLoop=1;jettySize=auto;html=1;fontSize=12;" edge="1" parent="xPJC3eJ1T_MHryYM_bCt-1" source="xPJC3eJ1T_MHryYM_bCt-10" target="xPJC3eJ1T_MHryYM_bCt-12">
          <mxGeometry relative="1" as="geometry" />
        </mxCell>
        <mxCell id="0nfRWeNEdjI4xpZbCPpN-0" style="edgeStyle=none;rounded=0;orthogonalLoop=1;jettySize=auto;html=1;exitX=0.5;exitY=1;exitDx=0;exitDy=0;fontSize=36;" edge="1" parent="xPJC3eJ1T_MHryYM_bCt-1" source="xPJC3eJ1T_MHryYM_bCt-10">
          <mxGeometry relative="1" as="geometry">
            <mxPoint x="538.6470588235293" y="599.9999999999998" as="targetPoint" />
          </mxGeometry>
        </mxCell>
        <mxCell id="xPJC3eJ1T_MHryYM_bCt-10" value="Writing the font end, back end and the algorithms and installing it into the newly designed machines" style="rounded=1;whiteSpace=wrap;html=1;fontSize=12;fillColor=#66FFFF;" vertex="1" parent="xPJC3eJ1T_MHryYM_bCt-1">
          <mxGeometry x="464" y="380" width="150" height="80" as="geometry" />
        </mxCell>
        <mxCell id="xPJC3eJ1T_MHryYM_bCt-11" value="" style="edgeStyle=orthogonalEdgeStyle;rounded=0;orthogonalLoop=1;jettySize=auto;html=1;fontSize=12;" edge="1" parent="xPJC3eJ1T_MHryYM_bCt-1" source="xPJC3eJ1T_MHryYM_bCt-12" target="xPJC3eJ1T_MHryYM_bCt-13">
          <mxGeometry relative="1" as="geometry" />
        </mxCell>
        <mxCell id="xPJC3eJ1T_MHryYM_bCt-18" style="edgeStyle=orthogonalEdgeStyle;rounded=0;orthogonalLoop=1;jettySize=auto;html=1;exitX=0.5;exitY=1;exitDx=0;exitDy=0;fontSize=12;" edge="1" parent="xPJC3eJ1T_MHryYM_bCt-1" source="xPJC3eJ1T_MHryYM_bCt-12">
          <mxGeometry relative="1" as="geometry">
            <mxPoint x="714" y="600" as="targetPoint" />
          </mxGeometry>
        </mxCell>
        <mxCell id="xPJC3eJ1T_MHryYM_bCt-12" value="Testing and debugging the softwares installed" style="rounded=1;whiteSpace=wrap;html=1;fillColor=#66FFFF;" vertex="1" parent="xPJC3eJ1T_MHryYM_bCt-1">
          <mxGeometry x="654" y="470" width="120" height="60" as="geometry" />
        </mxCell>
        <mxCell id="xPJC3eJ1T_MHryYM_bCt-13" value="Implementing the program to existing old machines and adding new features" style="rounded=1;whiteSpace=wrap;html=1;fillColor=#66FFFF;" vertex="1" parent="xPJC3eJ1T_MHryYM_bCt-1">
          <mxGeometry x="784" y="550" width="120" height="60" as="geometry" />
        </mxCell>
        <mxCell id="xPJC3eJ1T_MHryYM_bCt-24" style="edgeStyle=orthogonalEdgeStyle;rounded=0;orthogonalLoop=1;jettySize=auto;html=1;fontSize=12;" edge="1" parent="xPJC3eJ1T_MHryYM_bCt-1">
          <mxGeometry relative="1" as="geometry">
            <mxPoint x="538.47" y="460" as="targetPoint" />
            <mxPoint x="538.47" y="600" as="sourcePoint" />
            <Array as="points">
              <mxPoint x="538.47" y="570" />
              <mxPoint x="538.47" y="570" />
            </Array>
          </mxGeometry>
        </mxCell>
        <mxCell id="xPJC3eJ1T_MHryYM_bCt-27" style="edgeStyle=orthogonalEdgeStyle;rounded=0;orthogonalLoop=1;jettySize=auto;html=1;fontSize=12;" edge="1" parent="xPJC3eJ1T_MHryYM_bCt-1">
          <mxGeometry relative="1" as="geometry">
            <mxPoint x="713.82" y="529.9999999999999" as="targetPoint" />
            <mxPoint x="713.41" y="600" as="sourcePoint" />
            <Array as="points">
              <mxPoint x="713.82" y="590" />
              <mxPoint x="713.82" y="590" />
            </Array>
          </mxGeometry>
        </mxCell>
        <mxCell id="0nfRWeNEdjI4xpZbCPpN-2" style="edgeStyle=none;rounded=0;orthogonalLoop=1;jettySize=auto;html=1;exitX=0.5;exitY=1;exitDx=0;exitDy=0;fontSize=36;" edge="1" parent="xPJC3eJ1T_MHryYM_bCt-1">
          <mxGeometry relative="1" as="geometry">
            <mxPoint x="393.47" y="370" as="targetPoint" />
            <mxPoint x="393.4111764705883" y="599.9999999999998" as="sourcePoint" />
          </mxGeometry>
        </mxCell>
        <mxCell id="0nfRWeNEdjI4xpZbCPpN-4" style="edgeStyle=none;rounded=0;orthogonalLoop=1;jettySize=auto;html=1;exitX=0.5;exitY=1;exitDx=0;exitDy=0;fontSize=36;" edge="1" parent="xPJC3eJ1T_MHryYM_bCt-1">
          <mxGeometry relative="1" as="geometry">
            <mxPoint x="243.41000000000003" y="300" as="targetPoint" />
            <mxPoint x="243.93941176470588" y="599.9999999999998" as="sourcePoint" />
          </mxGeometry>
        </mxCell>
        <mxCell id="0nfRWeNEdjI4xpZbCPpN-6" style="edgeStyle=none;rounded=0;orthogonalLoop=1;jettySize=auto;html=1;exitX=0.5;exitY=1;exitDx=0;exitDy=0;fontSize=36;" edge="1" parent="xPJC3eJ1T_MHryYM_bCt-1">
          <mxGeometry relative="1" as="geometry">
            <mxPoint x="88.41" y="210" as="targetPoint" />
            <mxPoint x="88.64529411764707" y="599.9999999999998" as="sourcePoint" />
          </mxGeometry>
        </mxCell>
      </root>
    </mxGraphModel>
  </diagram>
  <diagram id="BTTBpgfma2KQN3wpItlG" name="V Shaped model">
    <mxGraphModel dx="2603" dy="634" grid="1" gridSize="10" guides="1" tooltips="1" connect="1" arrows="1" fold="1" page="1" pageScale="1" pageWidth="850" pageHeight="1100" math="0" shadow="0">
      <root>
        <mxCell id="VLZHjOJ6KcMEFxiAnT0Q-0" />
        <mxCell id="VLZHjOJ6KcMEFxiAnT0Q-1" parent="VLZHjOJ6KcMEFxiAnT0Q-0" />
        <mxCell id="LN4iH9fSnzV9U_ZMetDF-2" value="" style="edgeStyle=none;rounded=0;orthogonalLoop=1;jettySize=auto;html=1;fontSize=12;" edge="1" parent="VLZHjOJ6KcMEFxiAnT0Q-1" source="LN4iH9fSnzV9U_ZMetDF-0" target="LN4iH9fSnzV9U_ZMetDF-1">
          <mxGeometry relative="1" as="geometry" />
        </mxCell>
        <mxCell id="LN4iH9fSnzV9U_ZMetDF-0" value="Obtaining MEDITECH compatible resources, making point of care documentation and fixing budget" style="rounded=1;whiteSpace=wrap;html=1;fontSize=12;fillColor=#00FFFF;" vertex="1" parent="VLZHjOJ6KcMEFxiAnT0Q-1">
          <mxGeometry x="-300" y="457" width="140" height="73" as="geometry" />
        </mxCell>
        <mxCell id="LN4iH9fSnzV9U_ZMetDF-1" value="Acceptance of the project by major hospitals and their level of testing" style="whiteSpace=wrap;html=1;rounded=1;fillColor=#00FFFF;" vertex="1" parent="VLZHjOJ6KcMEFxiAnT0Q-1">
          <mxGeometry x="160" y="463.5" width="120" height="60" as="geometry" />
        </mxCell>
        <mxCell id="LN4iH9fSnzV9U_ZMetDF-3" value="" style="edgeStyle=none;rounded=0;orthogonalLoop=1;jettySize=auto;html=1;fontSize=12;entryX=1;entryY=0.5;entryDx=0;entryDy=0;exitX=0;exitY=0.5;exitDx=0;exitDy=0;" edge="1" parent="VLZHjOJ6KcMEFxiAnT0Q-1" source="LN4iH9fSnzV9U_ZMetDF-1" target="LN4iH9fSnzV9U_ZMetDF-0">
          <mxGeometry relative="1" as="geometry">
            <mxPoint x="160" y="486.5" as="sourcePoint" />
            <mxPoint x="-130" y="486.5" as="targetPoint" />
          </mxGeometry>
        </mxCell>
        <mxCell id="LN4iH9fSnzV9U_ZMetDF-19" style="edgeStyle=none;rounded=0;orthogonalLoop=1;jettySize=auto;html=1;exitX=1;exitY=0.5;exitDx=0;exitDy=0;fontSize=12;" edge="1" parent="VLZHjOJ6KcMEFxiAnT0Q-1" source="LN4iH9fSnzV9U_ZMetDF-15" target="LN4iH9fSnzV9U_ZMetDF-17">
          <mxGeometry relative="1" as="geometry" />
        </mxCell>
        <mxCell id="LN4iH9fSnzV9U_ZMetDF-15" value="Detailed Design of the programs in the new machines" style="rounded=1;whiteSpace=wrap;html=1;fontSize=12;fillColor=#00FFFF;" vertex="1" parent="VLZHjOJ6KcMEFxiAnT0Q-1">
          <mxGeometry x="-210" y="565" width="120" height="60" as="geometry" />
        </mxCell>
        <mxCell id="LN4iH9fSnzV9U_ZMetDF-20" style="edgeStyle=none;rounded=0;orthogonalLoop=1;jettySize=auto;html=1;exitX=0;exitY=0.5;exitDx=0;exitDy=0;entryX=1;entryY=0.5;entryDx=0;entryDy=0;fontSize=12;" edge="1" parent="VLZHjOJ6KcMEFxiAnT0Q-1" source="LN4iH9fSnzV9U_ZMetDF-17" target="LN4iH9fSnzV9U_ZMetDF-15">
          <mxGeometry relative="1" as="geometry" />
        </mxCell>
        <mxCell id="LN4iH9fSnzV9U_ZMetDF-17" value="Testing and debugging the softwares installed" style="whiteSpace=wrap;html=1;rounded=1;fillColor=#00FFFF;" vertex="1" parent="VLZHjOJ6KcMEFxiAnT0Q-1">
          <mxGeometry x="90" y="565" width="120" height="60" as="geometry" />
        </mxCell>
        <mxCell id="LN4iH9fSnzV9U_ZMetDF-21" value="Writing the font end, back end and the algorithms and installing it into the newly designed machines" style="rounded=1;whiteSpace=wrap;html=1;fontSize=12;fillColor=#00FFFF;" vertex="1" parent="VLZHjOJ6KcMEFxiAnT0Q-1">
          <mxGeometry x="-62.5" y="655" width="135" height="83" as="geometry" />
        </mxCell>
        <mxCell id="LN4iH9fSnzV9U_ZMetDF-22" value="" style="edgeStyle=none;rounded=0;orthogonalLoop=1;jettySize=auto;html=1;fontSize=12;" edge="1" parent="VLZHjOJ6KcMEFxiAnT0Q-1" source="LN4iH9fSnzV9U_ZMetDF-23" target="LN4iH9fSnzV9U_ZMetDF-24">
          <mxGeometry relative="1" as="geometry" />
        </mxCell>
        <mxCell id="LN4iH9fSnzV9U_ZMetDF-23" value="Checking if we have the resources which are economically, technically and operationally viable for the healthcare project" style="rounded=1;whiteSpace=wrap;html=1;fontSize=12;fillColor=#00FFFF;" vertex="1" parent="VLZHjOJ6KcMEFxiAnT0Q-1">
          <mxGeometry x="-360" y="359" width="160" height="78" as="geometry" />
        </mxCell>
        <mxCell id="LN4iH9fSnzV9U_ZMetDF-24" value="Implementing the program to existing old machines and adding new features" style="whiteSpace=wrap;html=1;rounded=1;fillColor=#00FFFF;" vertex="1" parent="VLZHjOJ6KcMEFxiAnT0Q-1">
          <mxGeometry x="210" y="362" width="140" height="72" as="geometry" />
        </mxCell>
        <mxCell id="LN4iH9fSnzV9U_ZMetDF-25" value="" style="edgeStyle=none;rounded=0;orthogonalLoop=1;jettySize=auto;html=1;fontSize=12;entryX=1;entryY=0.5;entryDx=0;entryDy=0;" edge="1" parent="VLZHjOJ6KcMEFxiAnT0Q-1" target="LN4iH9fSnzV9U_ZMetDF-23">
          <mxGeometry relative="1" as="geometry">
            <mxPoint x="160" y="397.5" as="sourcePoint" />
            <mxPoint x="-130" y="397.5" as="targetPoint" />
          </mxGeometry>
        </mxCell>
        <mxCell id="LN4iH9fSnzV9U_ZMetDF-26" value="&lt;b&gt;&lt;font style=&quot;font-size: 36px&quot;&gt;V Shaped SDLC Model For Health Care System for 21st Century&lt;/font&gt;&lt;/b&gt;" style="text;html=1;align=center;verticalAlign=middle;resizable=0;points=[];autosize=1;strokeColor=none;fillColor=none;fontSize=12;" vertex="1" parent="VLZHjOJ6KcMEFxiAnT0Q-1">
          <mxGeometry x="-545" y="270" width="1100" height="30" as="geometry" />
        </mxCell>
      </root>
    </mxGraphModel>
  </diagram>
  <diagram id="uNiga6isFp5wbWyzILms" name="Prototyping model">
    <mxGraphModel dx="2129" dy="770" grid="1" gridSize="10" guides="1" tooltips="1" connect="1" arrows="1" fold="1" page="1" pageScale="1" pageWidth="850" pageHeight="1100" math="0" shadow="0">
      <root>
        <mxCell id="cggJAaBuSbAzyIeAjKkg-0" />
        <mxCell id="cggJAaBuSbAzyIeAjKkg-1" parent="cggJAaBuSbAzyIeAjKkg-0" />
        <mxCell id="cggJAaBuSbAzyIeAjKkg-2" value="Prototyping Model for Healthcare for 21st Century" style="text;html=1;align=center;verticalAlign=middle;resizable=0;points=[];autosize=1;strokeColor=none;fillColor=none;fontSize=36;" vertex="1" parent="cggJAaBuSbAzyIeAjKkg-1">
          <mxGeometry x="344" y="30" width="810" height="50" as="geometry" />
        </mxCell>
        <mxCell id="cggJAaBuSbAzyIeAjKkg-7" value="" style="edgeStyle=none;rounded=0;orthogonalLoop=1;jettySize=auto;html=1;fontSize=12;" edge="1" parent="cggJAaBuSbAzyIeAjKkg-1" source="cggJAaBuSbAzyIeAjKkg-5" target="cggJAaBuSbAzyIeAjKkg-6">
          <mxGeometry relative="1" as="geometry" />
        </mxCell>
        <mxCell id="cggJAaBuSbAzyIeAjKkg-5" value="Obtaining MEDITECH compatible resources, making point of care documentation and fixing budget" style="rounded=1;whiteSpace=wrap;html=1;fontSize=12;fillColor=#00FFFF;" vertex="1" parent="cggJAaBuSbAzyIeAjKkg-1">
          <mxGeometry x="309" y="225" width="160" height="90" as="geometry" />
        </mxCell>
        <mxCell id="cggJAaBuSbAzyIeAjKkg-9" value="" style="edgeStyle=none;rounded=0;orthogonalLoop=1;jettySize=auto;html=1;fontSize=12;" edge="1" parent="cggJAaBuSbAzyIeAjKkg-1" source="cggJAaBuSbAzyIeAjKkg-6" target="cggJAaBuSbAzyIeAjKkg-8">
          <mxGeometry relative="1" as="geometry">
            <Array as="points">
              <mxPoint x="569" y="160" />
            </Array>
          </mxGeometry>
        </mxCell>
        <mxCell id="cggJAaBuSbAzyIeAjKkg-6" value="Quick Design of the programs and new machines" style="whiteSpace=wrap;html=1;rounded=1;fillColor=#00FFFF;" vertex="1" parent="cggJAaBuSbAzyIeAjKkg-1">
          <mxGeometry x="509" y="240" width="120" height="60" as="geometry" />
        </mxCell>
        <mxCell id="cggJAaBuSbAzyIeAjKkg-11" value="" style="edgeStyle=none;rounded=0;orthogonalLoop=1;jettySize=auto;html=1;fontSize=12;" edge="1" parent="cggJAaBuSbAzyIeAjKkg-1" source="cggJAaBuSbAzyIeAjKkg-8" target="cggJAaBuSbAzyIeAjKkg-10">
          <mxGeometry relative="1" as="geometry">
            <Array as="points">
              <mxPoint x="934" y="160" />
            </Array>
          </mxGeometry>
        </mxCell>
        <mxCell id="cggJAaBuSbAzyIeAjKkg-8" value="Building Prototype in accordance with the design" style="whiteSpace=wrap;html=1;rounded=1;fillColor=#00FFFF;" vertex="1" parent="cggJAaBuSbAzyIeAjKkg-1">
          <mxGeometry x="689" y="130" width="120" height="60" as="geometry" />
        </mxCell>
        <mxCell id="cggJAaBuSbAzyIeAjKkg-13" value="" style="edgeStyle=none;rounded=0;orthogonalLoop=1;jettySize=auto;html=1;fontSize=12;" edge="1" parent="cggJAaBuSbAzyIeAjKkg-1" source="cggJAaBuSbAzyIeAjKkg-10" target="cggJAaBuSbAzyIeAjKkg-12">
          <mxGeometry relative="1" as="geometry">
            <Array as="points">
              <mxPoint x="934" y="380" />
            </Array>
          </mxGeometry>
        </mxCell>
        <mxCell id="cggJAaBuSbAzyIeAjKkg-16" value="" style="edgeStyle=none;rounded=0;orthogonalLoop=1;jettySize=auto;html=1;fontSize=12;" edge="1" parent="cggJAaBuSbAzyIeAjKkg-1" source="cggJAaBuSbAzyIeAjKkg-10" target="cggJAaBuSbAzyIeAjKkg-15">
          <mxGeometry relative="1" as="geometry" />
        </mxCell>
        <mxCell id="cggJAaBuSbAzyIeAjKkg-10" value="Hospitals evaluation of prototype" style="whiteSpace=wrap;html=1;rounded=1;fillColor=#00FFFF;" vertex="1" parent="cggJAaBuSbAzyIeAjKkg-1">
          <mxGeometry x="874" y="240" width="120" height="60" as="geometry" />
        </mxCell>
        <mxCell id="cggJAaBuSbAzyIeAjKkg-14" style="edgeStyle=none;rounded=0;orthogonalLoop=1;jettySize=auto;html=1;exitX=0;exitY=0.5;exitDx=0;exitDy=0;entryX=0.5;entryY=1;entryDx=0;entryDy=0;fontSize=12;" edge="1" parent="cggJAaBuSbAzyIeAjKkg-1" source="cggJAaBuSbAzyIeAjKkg-12" target="cggJAaBuSbAzyIeAjKkg-6">
          <mxGeometry relative="1" as="geometry">
            <Array as="points">
              <mxPoint x="569" y="380" />
            </Array>
          </mxGeometry>
        </mxCell>
        <mxCell id="cggJAaBuSbAzyIeAjKkg-12" value="Refined prototype according to the hospital&#39;s needs" style="rounded=1;whiteSpace=wrap;html=1;fillColor=#00FFFF;" vertex="1" parent="cggJAaBuSbAzyIeAjKkg-1">
          <mxGeometry x="689" y="350" width="120" height="60" as="geometry" />
        </mxCell>
        <mxCell id="cggJAaBuSbAzyIeAjKkg-18" value="" style="edgeStyle=none;rounded=0;orthogonalLoop=1;jettySize=auto;html=1;fontSize=12;" edge="1" parent="cggJAaBuSbAzyIeAjKkg-1" source="cggJAaBuSbAzyIeAjKkg-15" target="cggJAaBuSbAzyIeAjKkg-17">
          <mxGeometry relative="1" as="geometry" />
        </mxCell>
        <mxCell id="cggJAaBuSbAzyIeAjKkg-15" value="Final design of the programs and machines" style="rounded=1;whiteSpace=wrap;html=1;fillColor=#00FFFF;" vertex="1" parent="cggJAaBuSbAzyIeAjKkg-1">
          <mxGeometry x="1202" y="240" width="120" height="60" as="geometry" />
        </mxCell>
        <mxCell id="cggJAaBuSbAzyIeAjKkg-20" value="" style="edgeStyle=none;rounded=0;orthogonalLoop=1;jettySize=auto;html=1;fontSize=12;" edge="1" parent="cggJAaBuSbAzyIeAjKkg-1" source="cggJAaBuSbAzyIeAjKkg-17" target="cggJAaBuSbAzyIeAjKkg-19">
          <mxGeometry relative="1" as="geometry" />
        </mxCell>
        <mxCell id="cggJAaBuSbAzyIeAjKkg-17" value="Implementation and installation of programs into new machines" style="rounded=1;whiteSpace=wrap;html=1;fillColor=#00FFFF;" vertex="1" parent="cggJAaBuSbAzyIeAjKkg-1">
          <mxGeometry x="1202" y="380" width="120" height="60" as="geometry" />
        </mxCell>
        <mxCell id="PwESg_79mA2EEXfDG4RA-1" value="" style="edgeStyle=none;rounded=0;orthogonalLoop=1;jettySize=auto;html=1;fontSize=12;" edge="1" parent="cggJAaBuSbAzyIeAjKkg-1" source="cggJAaBuSbAzyIeAjKkg-19" target="PwESg_79mA2EEXfDG4RA-0">
          <mxGeometry relative="1" as="geometry" />
        </mxCell>
        <mxCell id="cggJAaBuSbAzyIeAjKkg-19" value="&lt;span&gt;Testing and debugging the softwares installed&lt;/span&gt;" style="rounded=1;whiteSpace=wrap;html=1;fillColor=#00FFFF;" vertex="1" parent="cggJAaBuSbAzyIeAjKkg-1">
          <mxGeometry x="1202" y="520" width="120" height="60" as="geometry" />
        </mxCell>
        <mxCell id="PwESg_79mA2EEXfDG4RA-0" value="&lt;span&gt;Implementing the program to existing old machines, maintenance and adding new features&lt;/span&gt;" style="rounded=1;whiteSpace=wrap;html=1;fillColor=#00FFFF;" vertex="1" parent="cggJAaBuSbAzyIeAjKkg-1">
          <mxGeometry x="1202" y="660" width="125" height="80" as="geometry" />
        </mxCell>
        <mxCell id="4r7x5kT6ve8p-MdTBYrn-1" value="" style="edgeStyle=none;rounded=0;orthogonalLoop=1;jettySize=auto;html=1;fontSize=12;" edge="1" parent="cggJAaBuSbAzyIeAjKkg-1" source="4r7x5kT6ve8p-MdTBYrn-0" target="cggJAaBuSbAzyIeAjKkg-5">
          <mxGeometry relative="1" as="geometry" />
        </mxCell>
        <mxCell id="4r7x5kT6ve8p-MdTBYrn-0" value="&lt;span&gt;Checking if we have the resources which are economically, technically and operationally viable for the healthcare project&lt;/span&gt;" style="rounded=1;whiteSpace=wrap;html=1;fontSize=12;fillColor=#00FFFF;" vertex="1" parent="cggJAaBuSbAzyIeAjKkg-1">
          <mxGeometry x="39" y="230" width="230" height="80" as="geometry" />
        </mxCell>
        <mxCell id="4AJEx3YvN8mHaeEohXDQ-0" value="Hospitals satisfied with the prototype" style="text;html=1;align=center;verticalAlign=middle;resizable=0;points=[];autosize=1;strokeColor=none;fillColor=none;fontSize=12;" vertex="1" parent="cggJAaBuSbAzyIeAjKkg-1">
          <mxGeometry x="994" y="250" width="210" height="20" as="geometry" />
        </mxCell>
      </root>
    </mxGraphModel>
  </diagram>
</mxfile>
